<svg width="110" height="24" viewBox="0 0 110 24" fill="none" xmlns="http://www.w3.org/2000/svg">
<path d="M1.096 16V4.8H5.024C5.62667 4.8 6.168 4.94667 6.648 5.24C7.13333 5.53333 7.51733 5.93067 7.8 6.432C8.08267 6.928 8.224 7.48267 8.224 8.096C8.224 8.63467 8.11733 9.12533 7.904 9.568C7.69067 10.0107 7.39733 10.3813 7.024 10.68C6.656 10.9733 6.23733 11.176 5.768 11.288L8.488 16H6.936L4.272 11.4H2.432V16H1.096ZM2.432 10.056H4.896C5.25867 10.056 5.58933 9.968 5.888 9.792C6.192 9.61067 6.432 9.368 6.608 9.064C6.78933 8.75467 6.88 8.408 6.88 8.024C6.88 7.63467 6.78933 7.288 6.608 6.984C6.432 6.67467 6.192 6.432 5.888 6.256C5.58933 6.07467 5.25867 5.984 4.896 5.984H2.432V10.056ZM13.4644 16.208C12.7284 16.208 12.0564 16.0187 11.4484 15.64C10.8457 15.2613 10.363 14.7547 10.0004 14.12C9.64304 13.48 9.46438 12.7733 9.46438 12C9.46438 11.4133 9.56838 10.8667 9.77638 10.36C9.98438 9.848 10.2697 9.4 10.6324 9.016C11.0004 8.62667 11.427 8.32267 11.9124 8.104C12.3977 7.88533 12.915 7.776 13.4644 7.776C14.067 7.776 14.619 7.89867 15.1204 8.144C15.627 8.384 16.059 8.72 16.4164 9.152C16.779 9.584 17.0484 10.0853 17.2244 10.656C17.4057 11.2267 17.4724 11.8373 17.4244 12.488H10.8964C10.9604 12.9413 11.1097 13.3467 11.3444 13.704C11.579 14.056 11.8777 14.336 12.2404 14.544C12.6084 14.752 13.0164 14.8587 13.4644 14.864C13.9444 14.864 14.379 14.7413 14.7684 14.496C15.1577 14.2453 15.4724 13.904 15.7124 13.472L17.0804 13.792C16.7604 14.5013 16.2777 15.0827 15.6324 15.536C14.987 15.984 14.2644 16.208 13.4644 16.208ZM10.8564 11.432H16.0724C16.0297 10.984 15.8857 10.576 15.6404 10.208C15.395 9.83467 15.083 9.536 14.7044 9.312C14.3257 9.088 13.9124 8.976 13.4644 8.976C13.0164 8.976 12.6057 9.08533 12.2324 9.304C11.859 9.52267 11.5497 9.81867 11.3044 10.192C11.0644 10.56 10.915 10.9733 10.8564 11.432ZM25.2613 8H26.6053V16H25.2533L25.2053 14.648C24.9546 15.112 24.6079 15.488 24.1653 15.776C23.7279 16.064 23.2079 16.208 22.6053 16.208C22.0133 16.208 21.4613 16.0987 20.9493 15.88C20.4373 15.656 19.9839 15.3493 19.5893 14.96C19.1999 14.5653 18.8959 14.112 18.6773 13.6C18.4586 13.088 18.3493 12.536 18.3493 11.944C18.3493 11.3733 18.4559 10.8347 18.6693 10.328C18.8826 9.82133 19.1786 9.37867 19.5573 9C19.9413 8.616 20.3839 8.31733 20.8853 8.104C21.3866 7.88533 21.9226 7.776 22.4933 7.776C23.1279 7.776 23.6826 7.92533 24.1573 8.224C24.6373 8.51733 25.0213 8.89867 25.3093 9.368L25.2613 8ZM22.6373 14.904C23.1706 14.904 23.6293 14.7707 24.0133 14.504C24.3973 14.2373 24.6879 13.88 24.8853 13.432C25.0879 12.984 25.1786 12.488 25.1573 11.944C25.1359 11.4107 25.0106 10.928 24.7813 10.496C24.5519 10.064 24.2426 9.72267 23.8533 9.472C23.4639 9.216 23.0106 9.088 22.4933 9.088C21.9653 9.088 21.4853 9.22133 21.0533 9.488C20.6213 9.75467 20.2826 10.112 20.0373 10.56C19.7973 11.008 19.6879 11.5067 19.7093 12.056C19.7359 12.584 19.8853 13.064 20.1573 13.496C20.4293 13.928 20.7813 14.272 21.2133 14.528C21.6506 14.7787 22.1253 14.904 22.6373 14.904ZM34.7281 4H36.0721V16H34.7281V14.64C34.4561 15.1093 34.0908 15.488 33.6321 15.776C33.1735 16.064 32.6348 16.208 32.0161 16.208C31.4348 16.208 30.8908 16.0987 30.3841 15.88C29.8775 15.6613 29.4295 15.36 29.0401 14.976C28.6561 14.5867 28.3548 14.1387 28.1361 13.632C27.9175 13.1253 27.8081 12.5813 27.8081 12C27.8081 11.4187 27.9175 10.8747 28.1361 10.368C28.3548 9.856 28.6561 9.408 29.0401 9.024C29.4295 8.63467 29.8775 8.33067 30.3841 8.112C30.8908 7.89333 31.4348 7.784 32.0161 7.784C32.6348 7.784 33.1735 7.928 33.6321 8.216C34.0908 8.504 34.4561 8.88267 34.7281 9.352V4ZM32.0321 14.904C32.5601 14.904 33.0161 14.776 33.4001 14.52C33.7895 14.2587 34.0881 13.9067 34.2961 13.464C34.5095 13.0213 34.6161 12.5333 34.6161 12C34.6161 11.456 34.5095 10.9653 34.2961 10.528C34.0828 10.0853 33.7815 9.736 33.3921 9.48C33.0081 9.21867 32.5548 9.088 32.0321 9.088C31.5041 9.088 31.0241 9.21867 30.5921 9.48C30.1655 9.74133 29.8241 10.0933 29.5681 10.536C29.3121 10.9733 29.1841 11.4613 29.1841 12C29.1841 12.5387 29.3148 13.0293 29.5761 13.472C29.8375 13.9093 30.1841 14.2587 30.6161 14.52C31.0481 14.776 31.5201 14.904 32.0321 14.904ZM41.8975 16L44.0655 4.8H45.0975L48.1215 12.752L51.1375 4.8H52.1695L54.3455 16H52.9775L51.4015 7.872L48.5615 15.392H47.6735L44.8335 7.872L43.2655 16H41.8975ZM59.0894 16.208C58.3534 16.208 57.6814 16.0187 57.0734 15.64C56.4707 15.2613 55.988 14.7547 55.6254 14.12C55.268 13.48 55.0894 12.7733 55.0894 12C55.0894 11.4133 55.1934 10.8667 55.4014 10.36C55.6094 9.848 55.8947 9.4 56.2574 9.016C56.6254 8.62667 57.052 8.32267 57.5374 8.104C58.0227 7.88533 58.54 7.776 59.0894 7.776C59.8254 7.776 60.4947 7.96533 61.0974 8.344C61.7054 8.72267 62.188 9.232 62.5454 9.872C62.908 10.512 63.0894 11.2213 63.0894 12C63.0894 12.5813 62.9854 13.1253 62.7774 13.632C62.5694 14.1387 62.2814 14.5867 61.9134 14.976C61.5507 15.36 61.1267 15.6613 60.6414 15.88C60.1614 16.0987 59.644 16.208 59.0894 16.208ZM59.0894 14.864C59.5907 14.864 60.0414 14.7333 60.4414 14.472C60.8467 14.2053 61.164 13.856 61.3934 13.424C61.628 12.9867 61.7454 12.512 61.7454 12C61.7454 11.4773 61.6254 10.9973 61.3854 10.56C61.1507 10.1227 60.8334 9.77333 60.4334 9.512C60.0334 9.25067 59.5854 9.12 59.0894 9.12C58.588 9.12 58.1374 9.25333 57.7374 9.52C57.3374 9.78133 57.02 10.1307 56.7854 10.568C56.5507 11.0053 56.4334 11.4827 56.4334 12C56.4334 12.5333 56.5534 13.0187 56.7934 13.456C57.0334 13.888 57.356 14.232 57.7614 14.488C58.1667 14.7387 58.6094 14.864 59.0894 14.864ZM68.9891 9.328C68.8558 9.25333 68.7118 9.19467 68.5571 9.152C68.4025 9.10933 68.2345 9.088 68.0531 9.088C67.6105 9.088 67.2158 9.208 66.8691 9.448C66.5278 9.688 66.2585 10.0133 66.0611 10.424C65.8638 10.8347 65.7651 11.288 65.7651 11.784V16H64.4131V8H65.7571V9.232C66.0451 8.784 66.4025 8.432 66.8291 8.176C67.2558 7.91467 67.7278 7.784 68.2451 7.784C68.4211 7.784 68.5891 7.792 68.7491 7.808C68.9091 7.824 69.0611 7.856 69.2051 7.904L68.9891 9.328ZM73.355 16.208C72.619 16.208 71.947 16.0187 71.339 15.64C70.7363 15.2613 70.2537 14.7547 69.891 14.12C69.5337 13.48 69.355 12.7733 69.355 12C69.355 11.4133 69.459 10.8667 69.667 10.36C69.875 9.848 70.1603 9.4 70.523 9.016C70.891 8.62667 71.3177 8.32267 71.803 8.104C72.2883 7.88533 72.8057 7.776 73.355 7.776C73.9577 7.776 74.5097 7.89867 75.011 8.144C75.5177 8.384 75.9497 8.72 76.307 9.152C76.6697 9.584 76.939 10.0853 77.115 10.656C77.2963 11.2267 77.363 11.8373 77.315 12.488H70.787C70.851 12.9413 71.0003 13.3467 71.235 13.704C71.4697 14.056 71.7683 14.336 72.131 14.544C72.499 14.752 72.907 14.8587 73.355 14.864C73.835 14.864 74.2697 14.7413 74.659 14.496C75.0483 14.2453 75.363 13.904 75.603 13.472L76.971 13.792C76.651 14.5013 76.1683 15.0827 75.523 15.536C74.8777 15.984 74.155 16.208 73.355 16.208ZM70.747 11.432H75.963C75.9203 10.984 75.7763 10.576 75.531 10.208C75.2857 9.83467 74.9737 9.536 74.595 9.312C74.2163 9.088 73.803 8.976 73.355 8.976C72.907 8.976 72.4963 9.08533 72.123 9.304C71.7497 9.52267 71.4403 9.81867 71.195 10.192C70.955 10.56 70.8057 10.9733 70.747 11.432Z" fill="#C99E71"/>
<path d="M91 12H105" stroke="#C99E71" stroke-width="1.5" stroke-linecap="round" stroke-linejoin="round"/>
<path d="M98 5L105 12L98 19" stroke="#C99E71" stroke-width="1.5" stroke-linecap="round" stroke-linejoin="round"/>
</svg>
